# xmcd CD database file
#
# Track frame offsets:
#	150
#	13893
#	27788
#	40523
#	51868
#	66220
#	79720
#	93710
#	104503
#	116505
#	130578
#	144383
#	157003
#	167635
#	181808
#	196195
#	209380
#	221725
#	234175
#	246663
#	262628
#	274790
#	286183
#	300405
#
# Disc length: 4194 seconds
#
# Revision: 3
# Processed by: cddbd v1.5.2PL0 Copyright (c) Steve Scherf et al.
# Submitted via: CDex 1.51
#
DISCID=4a106018
DTITLE=Dizzy Gillespie - vOL. 119  -  And his orchestra 1946 - 1949
DYEAR=1952
DGENRE=Jazz
TTITLE0=Jumpin' with Symphony Sid
TTITLE1=Manteca
TTITLE2=Ool-ya-koo
TTITLE3=Our delighy
TTITLE4=Oop-pop-a-da
TTITLE5=Algo bueno
TTITLE6=Dizzier and dizzier
TTITLE7=I'm beboppin' too
TTITLE8=Cubana be
TTITLE9=Cubana bop
TTITLE10=Dizzy Gillespie - Hey Pete, Let's eat Mo'  meat
TTITLE11=Things to come
TTITLE12=Ray's idea
TTITLE13=Emanon
TTITLE14=Stay on it
TTITLE15=Ow
TTITLE16=Cool breeze
TTITLE17=Good bait
TTITLE18=Two bass hit
TTITLE19=Lover come back to me
TTITLE20=Minor walk
TTITLE21=Jump did-le ba
TTITLE22=Duff capers
TTITLE23=St.Louis blues
EXTD=YEAR: 1952
EXTT0=
EXTT1=
EXTT2=
EXTT3=
EXTT4=
EXTT5=
EXTT6=
EXTT7=
EXTT8=
EXTT9=
EXTT10=
EXTT11=
EXTT12=
EXTT13=
EXTT14=
EXTT15=
EXTT16=
EXTT17=
EXTT18=
EXTT19=
EXTT20=
EXTT21=
EXTT22=
EXTT23=
PLAYORDER=
